<?xml version="1.0" encoding="utf-8"?>
<!-- Generator: Adobe Illustrator 27.2.0, SVG Export Plug-In . SVG Version: 6.00 Build 0)  -->
<!DOCTYPE svg PUBLIC "-//W3C//DTD SVG 1.1//EN" "http://www.w3.org/Graphics/SVG/1.1/DTD/svg11.dtd" [
	<!ENTITY ns_extend "http://ns.adobe.com/Extensibility/1.0/">
	<!ENTITY ns_ai "http://ns.adobe.com/AdobeIllustrator/10.0/">
	<!ENTITY ns_graphs "http://ns.adobe.com/Graphs/1.0/">
	<!ENTITY ns_vars "http://ns.adobe.com/Variables/1.0/">
	<!ENTITY ns_imrep "http://ns.adobe.com/ImageReplacement/1.0/">
	<!ENTITY ns_sfw "http://ns.adobe.com/SaveForWeb/1.0/">
	<!ENTITY ns_custom "http://ns.adobe.com/GenericCustomNamespace/1.0/">
	<!ENTITY ns_adobe_xpath "http://ns.adobe.com/XPath/1.0/">
]>
<svg version="1.1" id="Layer_1" xmlns:x="&ns_extend;" xmlns:i="&ns_ai;" xmlns:graph="&ns_graphs;"
	 xmlns="http://www.w3.org/2000/svg" xmlns:xlink="http://www.w3.org/1999/xlink" x="0px" y="0px" viewBox="0 0 280 100"
	 style="enable-background:new 0 0 280 100;" xml:space="preserve">
<style type="text/css">
	.st0{fill:#007CBB;}
	.st1{fill:none;}
	.st2{fill:#1B669A;}
	.st3{fill:#7793B9;}
	.st4{fill:#B6C0DB;}
	.st5{fill:#FFFFFF;}
</style>
<metadata><?xpacket begin="﻿" id="W5M0MpCehiHzreSzNTczkc9d"?>
<x:xmpmeta xmlns:x="adobe:ns:meta/" x:xmptk="Adobe XMP Core 9.0-c000 79.f845eb1, 2022/11/03-19:28:45        ">
   <rdf:RDF xmlns:rdf="http://www.w3.org/1999/02/22-rdf-syntax-ns#">
      <rdf:Description rdf:about=""
            xmlns:tiff="http://ns.adobe.com/tiff/1.0/"
            xmlns:exif="http://ns.adobe.com/exif/1.0/"
            xmlns:xmp="http://ns.adobe.com/xap/1.0/"
            xmlns:xmpGImg="http://ns.adobe.com/xap/1.0/g/img/"
            xmlns:dc="http://purl.org/dc/elements/1.1/"
            xmlns:xmpMM="http://ns.adobe.com/xap/1.0/mm/"
            xmlns:stRef="http://ns.adobe.com/xap/1.0/sType/ResourceRef#"
            xmlns:stEvt="http://ns.adobe.com/xap/1.0/sType/ResourceEvent#"
            xmlns:xmpTPg="http://ns.adobe.com/xap/1.0/t/pg/"
            xmlns:stDim="http://ns.adobe.com/xap/1.0/sType/Dimensions#"
            xmlns:stFnt="http://ns.adobe.com/xap/1.0/sType/Font#"
            xmlns:xmpG="http://ns.adobe.com/xap/1.0/g/"
            xmlns:illustrator="http://ns.adobe.com/illustrator/1.0/"
            xmlns:pdf="http://ns.adobe.com/pdf/1.3/">
         <tiff:XResolution>150000/1000</tiff:XResolution>
         <tiff:YResolution>150000/1000</tiff:YResolution>
         <tiff:ResolutionUnit>2</tiff:ResolutionUnit>
         <tiff:YCbCrPositioning>1</tiff:YCbCrPositioning>
         <exif:ColorSpace>65535</exif:ColorSpace>
         <exif:PixelXDimension>1149</exif:PixelXDimension>
         <exif:PixelYDimension>979</exif:PixelYDimension>
         <xmp:CreatorTool>Adobe Illustrator 27.2 (Windows)</xmp:CreatorTool>
         <xmp:ModifyDate>2023-03-13T11:25:44-05:00</xmp:ModifyDate>
         <xmp:CreateDate>2023-03-13T11:25:44-05:00</xmp:CreateDate>
         <xmp:MetadataDate>2023-03-13T11:25:44-05:00</xmp:MetadataDate>
         <xmp:Thumbnails>
            <rdf:Alt>
               <rdf:li rdf:parseType="Resource">
                  <xmpGImg:width>256</xmpGImg:width>
                  <xmpGImg:height>148</xmpGImg:height>
                  <xmpGImg:format>JPEG</xmpGImg:format>
                  <xmpGImg:image>/9j/4AAQSkZJRgABAgEASABIAAD/7QAsUGhvdG9zaG9wIDMuMAA4QklNA+0AAAAAABAASAAAAAEA&#xA;AQBIAAAAAQAB/+4ADkFkb2JlAGTAAAAAAf/bAIQABgQEBAUEBgUFBgkGBQYJCwgGBggLDAoKCwoK&#xA;DBAMDAwMDAwQDA4PEA8ODBMTFBQTExwbGxscHx8fHx8fHx8fHwEHBwcNDA0YEBAYGhURFRofHx8f&#xA;Hx8fHx8fHx8fHx8fHx8fHx8fHx8fHx8fHx8fHx8fHx8fHx8fHx8fHx8fHx8f/8AAEQgAlAEAAwER&#xA;AAIRAQMRAf/EAaIAAAAHAQEBAQEAAAAAAAAAAAQFAwIGAQAHCAkKCwEAAgIDAQEBAQEAAAAAAAAA&#xA;AQACAwQFBgcICQoLEAACAQMDAgQCBgcDBAIGAnMBAgMRBAAFIRIxQVEGE2EicYEUMpGhBxWxQiPB&#xA;UtHhMxZi8CRygvElQzRTkqKyY3PCNUQnk6OzNhdUZHTD0uIIJoMJChgZhJRFRqS0VtNVKBry4/PE&#xA;1OT0ZXWFlaW1xdXl9WZ2hpamtsbW5vY3R1dnd4eXp7fH1+f3OEhYaHiImKi4yNjo+Ck5SVlpeYmZ&#xA;qbnJ2en5KjpKWmp6ipqqusra6voRAAICAQIDBQUEBQYECAMDbQEAAhEDBCESMUEFURNhIgZxgZEy&#xA;obHwFMHR4SNCFVJicvEzJDRDghaSUyWiY7LCB3PSNeJEgxdUkwgJChgZJjZFGidkdFU38qOzwygp&#xA;0+PzhJSktMTU5PRldYWVpbXF1eX1RlZmdoaWprbG1ub2R1dnd4eXp7fH1+f3OEhYaHiImKi4yNjo&#xA;+DlJWWl5iZmpucnZ6fkqOkpaanqKmqq6ytrq+v/aAAwDAQACEQMRAD8A9U4q7FXYq7FXYq7FXYq7&#xA;FXYq7FXYq7FXYq7FXYq7FXYq7FXYq7FXYq7FXYq7FXYq7FUBqOuafYELM/KU0/dJuwB7nwyccZkx&#xA;MgEr1XzQ00j6Z5eAvtVbZpF3gtwdi8r/AGdv5cnHFW8tgwlk6R5pB5du5/LHmq60jWbkzfpMRzQ3&#xA;z1CtKQQa1J+0ar9Ay7IOOAlHo1wPBKj1avfz08kW2rfUUa4ubVHEVxqcMfK2jZqgfFUMw2O6r8q4&#xA;Y6DIY39jVLtDGJV07+j0GKWOWNJYmDxyAMjqagqRUEEdjmEQ5wNrsVdirsVdirsVdirsVdirsVdi&#xA;rsVdirsVdirsVdirsVdirsVdirsVdirsVdirsVQ93fQ29FNZJm/u4E3dvkPD3O2SEbQSh2t9Uuj+&#xA;/m+qQn/dUG8n0yEbf7EYbA80UXNoWm/VJbZYgBMKPKficnrXkd+u+PiG7XhCUaVefoJv0ZfQrDBU&#xA;mG5jWitU9WoN/n18ctnHj3DGJ4dlfzb5ZtPMulBEdRcx1ezuRutT1Ukfst3yOLKYFckOIME0GPy3&#xA;baTd+RfMemR6atwSHuFAUO7GqSM+9GU0KP8AZ+WZeQzMhkibcSOOHCcchVpl5D1DVPKN3H5L8ytW&#xA;2ZmHlzVyf3NxGTUW5b9mQV+FT8h+zWGoiMg8SH+cP0o08pYj4c/80/oek5guwYPNrfmaDUPMts19&#xA;E6aHYJdxEW4UyPLDMwB+I0CtEM2AxYzGBr65Vz8w6s5solkFj0Rvl3g/qV0/MS0tLULq0D294tra&#xA;XKgtHxlF2/pIeQbgn7wHlyNAN65E6IyPpNiyPluzHaAiPWKNRPTfi2+G6aaT5nGtaXfzaXGrX1mZ&#xA;IViZ1eFpgnKPjKh4sjVG4+mmU5MHhyAlyP3N2LU+LCRh9Q+V+/uSXRfOk0Fncfpu4ZdUt4omn0u4&#xA;gW0lWSRggMTl/TkiLmilan5mgzIy6UEjgHpPUG/7C42HWERPiH1CvSRR+HQhF2f5gwXxtorKwlmu&#xA;55bqBoS6IqSWYRpKuTupWQEED6MrlozGyTsK+1shrxKhGJJJI/0v9rtK8+x6pq1lBa2pXTrnTTqb&#xA;3UrKhROfDcE0AVgwb7+mHJpOCJJPqEuFcWvGSYAHpMOK0Z5d852Gt309lFE0U8UKXSHkrq8MjMis&#xA;GQkVqu46dCCRlebTHGAfOvi2afWRyyMRzq/ghvK+pa/r1lFrf1qK2tJ5pBFp3o86QRStEQ8nJW9U&#xA;8CajYeByWohDGeCrNc/P9TDS5MmWPiWACeVdLr5pbb/mTDZaHb3eqL68xE0t2YigZIUuZIVb061/&#xA;Y9q9iTtl0tCZTIj5V8raY9oiOMGe53v3WQjtS85Tm1v3treW2isb6Gxa+IilDSPcQoVWIsrUZJt2&#xA;NKfPK4aYWLN3Emvgf1NuTWGpUK4ZAXt3jp8XWHnmSXTtQvbyzEC21++n2yeqgMjo5jK7ncgrX4Qa&#xA;joNsZ6SpAA842uPXExlKQqpcI3Tvy7r1prulpqFqrIheSKSN6VWSJyjioqCKrsR2zHzYTjlwlydP&#xA;nGWHEPxSZZU3uxV2KuxV2KuxV5p5nt7+01jzEkGraikdroEupwRi6kCrcO1wtQAdlUIOI7ZtcBBj&#xA;C4x3nw8umzpNTGUZ5KlLbGZc+vqRSef9XsNOjt7yzSXUOdhbxSRmedWF5A0od1jjaZmX0mBCr8Rp&#xA;kDo4ylYPp9XcOR+TYNfOEakPV6R1P1C+6+jfmDVfMOr+X9J1KzjuLPi002r6RBMbS9aGEtEzxNIs&#xA;b0jccqEDkCAccOOEJyiaPKjVhdRlyZMcZRsc+KINSobbX3L/APlYqWz6RDah9SsZ47EXd3KrrcL9&#xA;eYxxvLwQQqx41pXffptUfkr4ifSfVQ6bfan+UOHhA9UTw2evq5XtSW335k+Z30B7uC0traa4tJLq&#xA;0lDtJwWG7S0k5Ky05VlVl6inXLYaHHx0STRo/K/0NM+0cpx2AATGx8JCP6U+k883dv5mtNGnt4pU&#xA;kmisryeD1isV1Lbmegd0VCPhpxrypv4rmONIDjMwfMcuV05R1xGUQIHMA1exq0l0i4v9Q8n3/mq5&#xA;1i4t9TlW+D2kbpHDGYRKkcAjA+2oUNzrzr3pl+SMY5RjEQY+nf5b/jZxsUpTwnKZkS9W3QVe37ea&#xA;rbfmNdWcem2rQi8iNvBBcXRMxcXT2P1oc5GX0yW4/EoYneteowS0QlZ5bnu5cVMo9omPCKvYAnfn&#xA;w8XuQWoedfNfpWuoqsFrcXmkpewxrNI9ukU1zbIrOjIB6v7479htvk4aXHZjuQJ1y35S+zZqya3L&#xA;QlsCYXzNUTH7d0/m82yS+ZLfQL2zhubeSRbO7miEpWO7NqbkgM6KnagAblTfrUDGGmHhmYNdR7rp&#xA;zfzh8UYyAehq+fDaZzaNqemuZtGmLRHdrSQ1H0V/28oExL6nO4SOSVeYVtNYsxFrmmTQSx/3V5EP&#xA;iQ+3IAU8VJyzHcT6SwmBIbhjBtdeOkTaTLbf4g0NOLKqckuICCfTeJhV0ZaVHHkBl9x4uL6ZNEoE&#xA;x4T6gmflL8w5bab9Ha9dPNCoIjvJ4fTnj470uOBZXAXrJxWnVhSpFebT3vEfjyTizGO0jY7/ANbN&#xA;JtM8uvf36y+n9d1eBbe9iMpDyworqoCcqiiyNuoGY4yTod0Ts2HFj4pX9UxR35hSuPLHle5PqzQI&#xA;/qQw2Kv6rj93byF4lQhhR0k3DD4q98lHPkHI9b+bGWmxS3I6Ac+7l9vxRIt9GisXs5ZhJBc8hIZ5&#xA;2kZzTg3xuxb9nsdshxSJsDl5NnDAR4Sdj3lLbvyl5ThWSfUGYyytHwvbu6laaMwv6sSxTSPyTg/x&#xA;AA/OuWx1GQ7R+QH6GiekwjeXzJN7biiUTb6B5X064jukVYp/UmnjlknkYs9yqrM9ZHPLmEXInNkk&#xA;K93Tu5M44MUDfXc8+/mo/wCE/KNstpaCMQC3tzaQxCeRGe2kaphf46yIW3o1f14fzGU2e83y69/k&#xA;x/KYY0OVCufTu80XpnlzQ9JuEmtUZLgwrZxvLNJI3oRkskS+ozbJ2yGTPOYo8rvl172zFp8eM2Od&#xA;VzPLuQ7+XfLNpeiRnNt9Zl9YWX1mSO3kn5Bi/wBX5iNm5AE/DSu9K5MZshHfXWt697A6fFGV8rPK&#xA;9r93JCzeTvI8gktSiIssbWs8CXMieojSNJwkAkBYiSRiK9MkNTmG/wAeTA6PAdvhzPf7+9Hto/lm&#xA;X6zphEbPcXC31zbCZvUM0bI6yEBuQ3jQ0G2V+JkFS7hXwbThxG4954iL67fqCg/lbyvcXMoUn1zc&#xA;m9McVzIpjuQfilRFf4GNTyoN6nxOS/MZAPhXLp3MDpcRJ77vmefemmlaRp+lWrWthEYoWkkmZSzO&#xA;S8rF3NXLHdjlOTJKZsuRixRxio8v1ozINjsVdirsVdirsVY9dS6LdeZLnTLizje4ubRbW6lldVaW&#xA;3kEriJIyeUi7PyI6ffTJiJjGJA7A38dnDkYSymJG5jR8xvt59UJ5lm8s6bPBYXmli5XU0QHihcD6&#xA;tNBBFyIB4cPrVVbalOtSMngGSYJEq4f0gn9DXqTigRGUb4v0GIH+65o/XNE8t/oq2trzTYp7OGWG&#xA;3t4QoXh9ZlWD4SKED958XjleLLk4iQd9/s3bs+HFwASiCAQPmaSzzpF5U0SzttWu9FjumgaOGERI&#xA;A0a2yPNGVoKD0xGePh4ha5bpTkyExEqv9OzRrBhxREzC6/Rv9iYalpvlnTdDkuX06OSyt7aSEQgK&#xA;ymCd1eRPiPHizgMxO3fK4TySnV7k/aG7JjxQx3w+kD7CoeX9F8p38cOrW2kw29zBKyLIoUkSWrtD&#xA;zSRdn6Gj9SOuSzZckfSZEj9e7DT4cMwJiIBB+7b8FS0bT/Let3uoX76CtvcB5IHupIuKz8ucbuhI&#xA;XkxFQzAdDTkcOWeTGAOKx9zHDjxZZSlwUeV1z6fj70NpkHlDU/Ml9p/6ESO605VVbpgKOsA9BePQ&#xA;/Ch47V22J6ZPIcsMYlxbS/TuwxRwzymPBvHr7tkZqR8pWmsaZoNxYxu95aNYRVAKRW1AY4XBP2ZD&#xA;DRPdflkIeLKMpg8jfx7/AIW2ZPBjOOMjnHh9w7vjW3uW6xpvlPQ57G+GlW4vHnVLe4JSBUeOF25v&#xA;K1AP3aEeLGnzDjnkyAjiNV7+q5seHERLhF37unf7mQ6heta6bPexx+sYYzL6fILyCjkfi+IdMxoR&#xA;uQDl5J8MTIb00t+V0v6/PEU4wmZ4UPqMAF5UWgHI0x4PVQUT9HER0tC+Xddt9Xt55IYvSEEgjfiy&#xA;SIS0SSgq8ZKn4ZAD4H78nmxGBFsNPnGQEjp+q/0ofSfM9rqOv6hpS2zxT6fUeu1OLqG4niSB38K+&#xA;+SyYDGAlfNhi1QnklCt4pB5bis9PjubHWtMludelv5p3lFs83rhpuUEyT8fTVUQqPiccadsyc5Mq&#xA;MJVDhHXltuK/FuHphGFxnEnJxE8rvfY3y+3ZJdN0LzOmj+XvVWQ2sOv+s+n/AFV1lhT63M3rPJyr&#xA;woa7oBQjfL55cfFPv8PnfkNnGx4MohC+QycuHceo7/gIHTfLXmGX0I49LR5V03VkEeoQP6PqSaiz&#xA;xpUhQrupqte2/TLJ54C/V/FDkf6LVj02Q1Uf4J/UNvr+9O9GtYrC90y81i2u7nSV0eGzsmuraWaS&#xA;C4ViJ45YVR2R3HH4qUIFK9Mx8suISESBLjJNHmOm7lYYiEoymJGHAALBNHrYS7SvLPmL9M6ZXT4z&#xA;aGPU2tYNQieSC2tpbhDBDIBXi3DdVJ6bZbkzw4Zb7+nlzJrctOLTZOOPp29dcQ2AJ2C2/wDJWuWU&#xA;l1p9tbJqot/L8dstzcwsyu/1iZmS3JPFZEV/gXltthhqoSqRPDeS9j5Dn5d6MmiyRJiBx1iqyPM8&#xA;vPuR2vWGv6hbWlzpNndSL5dtbaXTGueUM73KhJZC0TrWRmiVY/8AWZhleGcIkiRHrJuuVcvv3+Tb&#xA;nx5JgGAP7sDhvY3zO3Xbb32mNnJaxa9q175g02eddWW2k0tntJLn/R/RFbbiqP6bpJy5KwFa1yqQ&#xA;JhEQIHDd71vfPzboEDJKWSJPHXD6b2r6eW26IfQo289Wdzb6aLe3OjzcZGgXhHcmeJkDkBk9RR71&#xA;yIy/uSCbPGOvSj9jM4P34IjQ8M9Otj7Uhh0yd/K+naNb2E0PnC3u4Zbi8aCQGOUT8p7prriEdHj5&#xA;dHPKtPbMg5B4hmSPCIO1+WwpxBjJxRgIkZhIb0e/eXF5jzW2OharFqUF3cacyWaeZLudrmG3c3qq&#xA;0r+ixPU20hYcyB09sMssTEgHfwx128/85YYJiQJjt4sjderma/zT1eq5p3fOxV2KuxV2KuxV2Ktc&#xA;V5BqDkAQD3oev6sVc0aMQWUEjoSK9wf4DG0U2QCKEVHXf23xS0yK2zANTpUV9sVpsAAUGwHQYq4A&#xA;AAAUA2AGKuAAFAKDwGKtBEDcgoDb70336/fTG0U4ohNSoJ23I8Nx92NrTmVWFGAI8D7YpbIBFDuD&#xA;1GKuxVpVVRRQAPAe+KtCOMNyCgNv8VBXfr+rDaKXYEuxV2KuxV2KuxV2KuxV2KuxV2KuxV2KuxV2&#xA;KuxV2KuxV2KuxV2KuxV2KuxV2KuxV2KuxV2KuxV2KuxV2KuxV2KuxV2KuxV2KuxV2KuxV2KuxV2K&#xA;uxV2KuxV2KuxV2KuxV2KuxV2KuxV2KuxV2KuxV2KuxV2KuxV2KuxV2KuxV2KuxV2KuxV2KuxV2Ku&#xA;xV2KuxV2KuxV2KuxV2KuxV2KuxV2KuxV2KuxVK/MPmny75cslvdd1GDTrZ3EUbzuFLyMaBEX7Tt7&#xA;KDiqRfmP+ZujeS9PVWB1DzDe/u9F8v29XuruY7KqooZlSv2npQe5oCq87/JX8yPOzfmH5k8l/mXc&#xA;rB5mm9C+0ixHpiFYmiLywW5TY8EKEDkxNGJNQTir03U/zQ/L3S/MUHly/wBfs7fW7hgiWTyDkHb7&#xA;KSEVWNmr8IcgntirKMVdirsVdirsVdirsVdirsVdirsVdirsVdirsVdirsVdirsVdirsVdirsVdi&#xA;rsVdiqB1zXdH0LS59V1i8isdOtl5T3MzcUWpoB7liaADcnYYqwqXzd+Y3mQmPydoK6Rp7DbzB5jV&#xA;4eQ/mt9OSlw226mYxj2OKsY83f8AONll5m0HUp9d1y817zvPARp+s3bmC3t5lPJUgtIT6UUTkUYU&#xA;bqSN8VY3/wA48+Z/KOn6/e+XfN1g+l/mwkjQ32papI0899U1AiuJmcqStPgU8XFGXl2VZP8A85Ef&#xA;lBqXmqztPNflLnB540Eq9pJA3pSzwq3L01eq0kjYl4zXxHcUVeP/AJSeTPyj89+SNU8oXfqab+aU&#xA;zySyXmokm4+swsxBtyQv7vr60X2+pNaKwVe2fkX5/wBYuIZ/IHnYNa+evLiiKRJmq15aLtHcxsf7&#xA;z4aBmFa7N3NFXreKuxV2KuxV2KuxV2KuxV2KuxV2KuxV2KuxV2KuxV2KuxV2KvJfN3nj8x9F1zzR&#xA;YRXukSW2ieXJ/Mlu36OuRKwDXKRW7Mb5kqptgWk4fFX7AxVMrL87dCTQBeapZ3lrqkb2Ns+nPHDH&#xA;LPPqEBngMJeYRCORUdgZJF4hTy40xVBeevzYv4vKfl7zL5XkS38v6rO6apr1zaS3qafGiuo9a2ge&#xA;Nx/pCem78qJTvtiqdS/mzoWmXHl3TtYljlvdcitON/YSRSWBlvD6cZi9SRLh4nkGzrGwUEciK4qk&#xA;eqf85CaHH5eu9T07SNRlkW0a808XEcUUVxGl0tlI6sJWbjHPIitUA7gio3xVk0v5peX7fzXpvli8&#xA;guLTUtTWP0hMbcCOaWFp1glRZmlDcUI5BDHy+EPXbFXnllfeYvNejXn5qta6Xc6Vbx6hLoulX4uZ&#xA;5LaOwWZIrqMmRrZZmmhqyrArFT/eilMVZZY/nZ5ftxoljrQkj1TUtOgvJZYvR9H1pbP62YljMvrj&#xA;kqtwYx8Cfh58tsVSbUvz3dDDqdhpd6dOudJGoWOnXNtFHNOst3awR3ayi4YLD/pfEIUDMd/s0JVU&#xA;PzK038qvzB8yaf5R8y6ZdWHmW6jVbDVUNtHcQStbm6+ruUlkc0QN9uNouVQrcsVYxda7+en5Kqq6&#xA;sn+PvIsZCpqA5re20YFAJG/eMgH+XzXtzXpirEPzC178iPzRMfmDRdcPkzz7FxdJb2KW3jmdN19e&#xA;aESRK6kfDKr8vEGgoqgW/OGe70yysvzFgkj13RpQfLn5jaKYbsxTJuBK0TelOjdJVV/iXqvLfFXu&#xA;35UfnzonnCePSL+eyh1t1P1eW0n5W93wpyMUUwiuoX7+nLH0+yzUNFXq2KuxV2KuxV2KuxV2KuxV&#xA;2KuxV2KuxV2KuxV2KuxV2KuxVg2veXPKGt+atas7i6vP0trWg/oK/itkZoYbOUzyK5l9F44pm9Z+&#xA;PqPvQUU91Uo82+SPy2tZYbPWtVmsr7UPqEmmO5hd1l0jjZwyQq8MkbMTfqkiurBg32eNcVTvXPJG&#xA;nReWrPTV17UdHig/0E3tq0Ief9IyrE6SwtDJb1llkHFliXgT8PFajFWL+avyu/LLy7BYapqeq32k&#xA;aZZpptssMfpzRyHRedzas5NvPMvFEkMnBlVhUnffFUx1L8pfINh5TEGoX14NHsdLu9O+sGRC4hvr&#xA;uK9Mo9OKrSpPAnpcR7cWOKrdC/LDypq2sQ+boNc1PULiPUI76b6wtvEX1Cwiaxczxm1hmjIQcGi+&#xA;FRTZRiqloPkPyPqb63pOg+YNUj0VXuPrvlyCT0bWCe+WVJJI/UhEpRizsqeo0PIV4mmKpfZflX+W&#xA;ep+ZJ9Os9a1B77S/q0tzp49JV9Wzszpay+rJbcn/AHVFZUk4ht6CuKpvq/5bfl+JdE8tXmqXUF/J&#xA;oLeXdHh9SMTSW1k9vcmcH0qevEbWNq7L1+HwVU7/APLnyloHmSx8y6lrmqzahNqMV5FbrHFcPdX8&#xA;Vk9u7mK2tHnIa2DM6R0RaVAUYq9Iv9QtbCxmvrpmS2t0MkzKjyFUG5PBAzbd6DFWNa35K/LTzDpL&#xA;X2s6FYXFk0ZuHurm1WGRYwCxcuyxyx/DvXbFUB+X3kv8pbOw1NPKWkQRWt0yQarBNFNycqgljSWO&#xA;8HPiUmDrtQhgRiqU6X+Wf5BX3mm9h03QbIa5p3L6zDFHNCkdSY2KIOENVJpVB8Jp02xV6lirsVdi&#xA;rsVdirsVdirsVdirsVdirsVdirsVdirsVdirsVS8+X9K/TP6aETJqJRY3lSWVFdUDKnqRKwjkKiR&#xA;uJZSRXbFVPV/K+gaxc29zqdmlzPaKyW0jlgUDTQzmlCP922kTf7HwJqqjbyxtb2FYbqMSxpLFOqk&#xA;kUkt5Vmiban2ZI1bFUH5h8saB5jslsdbso7+0RzIsMteIco0fLYjfjI1PDr1xVE32lWF/p0mm3sX&#xA;1izmT05IpCzFlHSrE8uQpXlWtd+uKtaVpOn6VZi0sIvSh5vK1WaR3klYvJI8jlnd3ZiWZiScVa0z&#xA;R9L0uJ4tPtY7ZJZGllEa0LySMWZmPViSe+KobT/Kvl7TtXu9YsbJLfUr/l9duULBpuTc/wB4K0aj&#xA;fZqPhqaUqaqtX/lPy5qGsWus3thFPqtlw+p3rV9WH0y5HpsD8FfUblT7Q2aoAxVW1nQdL1iKGO/i&#xA;Z/q0nrW8kUssEschRoyySwtHItUkZTRtwSMVRdxa29zay2k6c7eaNopYzWhRhxYbb7g4q09navZt&#xA;ZSRLJaNGYXgcckaMrxKMDWoK7b4qhNE8vaRolvJb6ZAYUlcSSszySu7BFjUtJKzu3FEVFqdlAA2G&#xA;Kqen+VfL2navd6xY2SW+pX9frtyhblNVufxitGo32dtqmlKnFU1xV2KuxV2KuxV2KuxV2KuxV2Ku&#xA;xV2KuxV2KuxV2KuxV2KuxV2KuxV2KuxV2KuxV2KuxV2KuxV2KuxV2KuxV2KuxV2KuxV2KuxV2Kux&#xA;V2KuxV2KuxV2KuxV2KuxV2KuxV2KuxV2KuxV2KuxV2KuxV2KuxV2KuxV2KuxV2KuxV2KuxV2KuxV&#xA;2KuxV2KuxV2KuxV2KuxV2KuxV2KuxV2KuxV2KuxV2KuxV2KuxV2KuxV2KuxV2KuxV2KuxV2KuxV2&#xA;KuxV2KuxV2KuxV2KuxV2KuxV2KuxV2KuxV2KuxV2KuxV2KuxV2KuxV2KuxV2KuxV2KuxV2KuxV2K&#xA;uxV2KuxV2KuxV2KuxV2KuxV2KuxV2KuxV2KuxV2KuxV2KuxV2KuxV2KuxV2KuxV2KuxV2KuxV2Ku&#xA;xV2KuxV2KuxV2KuxV2KuxV2KuxV2KuxV2KuxV2KuxV2KuxV2KuxV2KuxV2KuxV2KuxV2KuxV2Kux&#xA;V2KuxV2KuxV2KuxV2KuxV2KuxV2KuxV2KuxV2KuxV2KuxV2KuxV2KuxV2KuxV2KuxV2KuxV2KuxV&#xA;2Kv/2Q==</xmpGImg:image>
               </rdf:li>
            </rdf:Alt>
         </xmp:Thumbnails>
         <dc:format>image/svg+xml</dc:format>
         <dc:title>
            <rdf:Alt>
               <rdf:li xml:lang="x-default">SVG The Santa Clarita Chiropractor Logo Template</rdf:li>
            </rdf:Alt>
         </dc:title>
         <xmpMM:DocumentID>xmp.did:b2e58eb6-c06b-8949-a89e-31cdfa0162e7</xmpMM:DocumentID>
         <xmpMM:InstanceID>xmp.iid:b2e58eb6-c06b-8949-a89e-31cdfa0162e7</xmpMM:InstanceID>
         <xmpMM:OriginalDocumentID>xmp.did:1badb533-bdda-a74f-9b87-1425afd4967a</xmpMM:OriginalDocumentID>
         <xmpMM:RenditionClass>default</xmpMM:RenditionClass>
         <xmpMM:DerivedFrom rdf:parseType="Resource">
            <stRef:instanceID>uuid:515ac274-8860-467f-b806-0723d66fc003</stRef:instanceID>
            <stRef:documentID>xmp.did:ce4ef4ab-e4ee-3d49-8698-1a1004ea2f9d</stRef:documentID>
            <stRef:originalDocumentID>xmp.did:1badb533-bdda-a74f-9b87-1425afd4967a</stRef:originalDocumentID>
            <stRef:renditionClass>default</stRef:renditionClass>
         </xmpMM:DerivedFrom>
         <xmpMM:History>
            <rdf:Seq>
               <rdf:li rdf:parseType="Resource">
                  <stEvt:action>saved</stEvt:action>
                  <stEvt:instanceID>xmp.iid:1badb533-bdda-a74f-9b87-1425afd4967a</stEvt:instanceID>
                  <stEvt:when>2022-11-08T12:59:31-06:00</stEvt:when>
                  <stEvt:softwareAgent>Adobe Illustrator 27.0 (Windows)</stEvt:softwareAgent>
                  <stEvt:changed>/</stEvt:changed>
               </rdf:li>
               <rdf:li rdf:parseType="Resource">
                  <stEvt:action>saved</stEvt:action>
                  <stEvt:instanceID>xmp.iid:b2e58eb6-c06b-8949-a89e-31cdfa0162e7</stEvt:instanceID>
                  <stEvt:when>2023-03-13T11:25:44-05:00</stEvt:when>
                  <stEvt:softwareAgent>Adobe Illustrator 27.2 (Windows)</stEvt:softwareAgent>
                  <stEvt:changed>/</stEvt:changed>
               </rdf:li>
            </rdf:Seq>
         </xmpMM:History>
         <xmpTPg:NPages>1</xmpTPg:NPages>
         <xmpTPg:HasVisibleTransparency>False</xmpTPg:HasVisibleTransparency>
         <xmpTPg:HasVisibleOverprint>False</xmpTPg:HasVisibleOverprint>
         <xmpTPg:MaxPageSize rdf:parseType="Resource">
            <stDim:w>280.000000</stDim:w>
            <stDim:h>100.000000</stDim:h>
            <stDim:unit>Pixels</stDim:unit>
         </xmpTPg:MaxPageSize>
         <xmpTPg:Fonts>
            <rdf:Bag>
               <rdf:li rdf:parseType="Resource">
                  <stFnt:fontName>TTDrugs-Bold</stFnt:fontName>
                  <stFnt:fontFamily>TT Drugs</stFnt:fontFamily>
                  <stFnt:fontFace>Bold</stFnt:fontFace>
                  <stFnt:fontType>TrueType</stFnt:fontType>
                  <stFnt:versionString>Version 1.000;com.myfonts.easy.type-type.tt-drugs.bold.wfkit2.version.4fbM</stFnt:versionString>
                  <stFnt:composite>False</stFnt:composite>
                  <stFnt:fontFileName>TTDrugs-Bold.ttf</stFnt:fontFileName>
               </rdf:li>
            </rdf:Bag>
         </xmpTPg:Fonts>
         <xmpTPg:PlateNames>
            <rdf:Seq>
               <rdf:li>Cyan</rdf:li>
               <rdf:li>Magenta</rdf:li>
               <rdf:li>Yellow</rdf:li>
               <rdf:li>Black</rdf:li>
            </rdf:Seq>
         </xmpTPg:PlateNames>
         <xmpTPg:SwatchGroups>
            <rdf:Seq>
               <rdf:li rdf:parseType="Resource">
                  <xmpG:groupName>Default Swatch Group</xmpG:groupName>
                  <xmpG:groupType>0</xmpG:groupType>
                  <xmpG:Colorants>
                     <rdf:Seq>
                        <rdf:li rdf:parseType="Resource">
                           <xmpG:swatchName>R=52 G=52 B=52 1</xmpG:swatchName>
                           <xmpG:mode>RGB</xmpG:mode>
                           <xmpG:type>PROCESS</xmpG:type>
                           <xmpG:red>52</xmpG:red>
                           <xmpG:green>52</xmpG:green>
                           <xmpG:blue>52</xmpG:blue>
                        </rdf:li>
                     </rdf:Seq>
                  </xmpG:Colorants>
               </rdf:li>
            </rdf:Seq>
         </xmpTPg:SwatchGroups>
         <illustrator:CreatorSubTool>Adobe Illustrator</illustrator:CreatorSubTool>
         <pdf:Producer>Adobe PDF library 17.00</pdf:Producer>
      </rdf:Description>
   </rdf:RDF>
</x:xmpmeta>
                                                                                                    
                                                                                                    
                                                                                                    
                                                                                                    
                                                                                                    
                                                                                                    
                                                                                                    
                                                                                                    
                                                                                                    
                                                                                                    
                                                                                                    
                                                                                                    
                                                                                                    
                                                                                                    
                                                                                                    
                                                                                                    
                                                                                                    
                                                                                                    
                                                                                                    
                                                                                                    
                           
<?xpacket end="w"?>
	</metadata>
<g>
	<g>
		<path class="st0" d="M14.8,87.2l0.6,0.5c-0.4,0.6-1,1-1.6,1.4c-0.7,0.3-1.4,0.5-2.1,0.5c-1.3,0-2.4-0.4-3.3-1.3
			c-0.9-0.8-1.4-1.9-1.4-3.1c0-1.2,0.5-2.3,1.4-3.1c0.9-0.8,2-1.3,3.3-1.3c0.7,0,1.4,0.1,2,0.4c0.6,0.3,1.1,0.7,1.6,1.3l-0.6,0.5
			c-0.3-0.4-0.8-0.7-1.3-1c-0.5-0.2-1-0.3-1.5-0.3c-0.9,0-1.7,0.3-2.3,1c-0.6,0.7-0.8,1.5-0.8,2.4c0,0.9,0.3,1.7,0.8,2.4
			c0.6,0.7,1.3,1,2.2,1c0.6,0,1.1-0.1,1.6-0.4C14,88,14.4,87.7,14.8,87.2z"/>
		<path class="st0" d="M32.3,81.1v3.5h4v-3.5H38v8.3h-1.7v-3.7h-4v3.7h-1.7v-8.3H32.3z"/>
		<path class="st0" d="M56.7,81.1v8.3H55v-8.3H56.7z"/>
		<path class="st0" d="M76.5,86.4h-1.8v3h-1.7v-8.3h3.2c0.7,0,1.2,0.1,1.8,0.2c0.5,0.2,1,0.4,1.4,0.9c0.4,0.4,0.6,0.9,0.6,1.6
			c0,0.5-0.2,1-0.5,1.3c-0.3,0.4-0.7,0.6-1.3,0.8v0.1l2.5,3.4h-1.9L76.5,86.4z M74.7,85.4h1.4c0.5,0,1-0.2,1.3-0.5
			c0.4-0.3,0.5-0.7,0.5-1.2c0-0.5-0.2-0.9-0.5-1.2c-0.4-0.3-0.8-0.4-1.3-0.4h-1.4V85.4z"/>
		<path class="st0" d="M95.5,85.2c0-1.2,0.5-2.3,1.4-3.1c0.9-0.8,2-1.3,3.3-1.3c1.3,0,2.4,0.4,3.3,1.3c0.9,0.8,1.4,1.9,1.4,3.1
			c0,1.2-0.5,2.3-1.4,3.1c-0.9,0.8-2,1.3-3.3,1.3c-1.3,0-2.4-0.4-3.3-1.3C96,87.5,95.5,86.5,95.5,85.2z M103.1,85.2
			c0-0.9-0.3-1.7-0.8-2.4c-0.5-0.7-1.2-1-2.1-1c-0.6,0-1.2,0.2-1.6,0.6c-0.5,0.4-0.8,0.8-1,1.4c-0.2,0.4-0.2,0.9-0.2,1.4
			c0,0.6,0.1,1.1,0.3,1.6c0.2,0.5,0.5,0.9,1,1.3c0.4,0.4,1,0.5,1.6,0.5c0.6,0,1.2-0.2,1.6-0.6c0.5-0.4,0.8-0.9,1-1.4
			C103,86.2,103.1,85.8,103.1,85.2z"/>
		<path class="st0" d="M121,81.1h3.4c0.5,0,0.9,0.1,1.3,0.2c0.4,0.1,0.8,0.3,1.2,0.5c0.4,0.2,0.6,0.5,0.8,0.9
			c0.2,0.4,0.3,0.8,0.3,1.2c0,0.6-0.2,1.2-0.6,1.6s-0.8,0.7-1.4,0.9c-0.5,0.2-1.1,0.2-1.7,0.2h-1.7v2.8H121V81.1z M126.2,83.8
			c0-0.5-0.2-0.9-0.5-1.2c-0.3-0.3-0.8-0.5-1.3-0.5h-1.7v3.4h1.7c0.5,0,1-0.2,1.3-0.5C126,84.7,126.2,84.3,126.2,83.8z"/>
		<path class="st0" d="M146.6,86.4h-1.8v3H143v-8.3h3.2c0.7,0,1.2,0.1,1.8,0.2c0.5,0.2,1,0.4,1.4,0.9c0.4,0.4,0.6,0.9,0.6,1.6
			c0,0.5-0.2,1-0.5,1.3c-0.3,0.4-0.7,0.6-1.3,0.8v0.1l2.5,3.4h-1.9L146.6,86.4z M144.8,85.4h1.4c0.5,0,1-0.2,1.3-0.5
			c0.4-0.3,0.5-0.7,0.5-1.2c0-0.5-0.2-0.9-0.5-1.2c-0.4-0.3-0.8-0.4-1.3-0.4h-1.4V85.4z"/>
		<path class="st0" d="M172.9,89.4l-0.8-1.9h-3.8l-0.8,1.9h-1.2l3.6-8.3h1.5l3.5,8.3H172.9z M170.2,82.9l-1.5,3.5h3L170.2,82.9
			L170.2,82.9z"/>
		<path class="st0" d="M197.9,87.2l0.6,0.5c-0.4,0.6-1,1-1.6,1.4c-0.7,0.3-1.4,0.5-2.1,0.5c-1.3,0-2.4-0.4-3.3-1.3
			c-0.9-0.8-1.4-1.9-1.4-3.1c0-1.2,0.5-2.3,1.4-3.1c0.9-0.8,2-1.3,3.3-1.3c0.7,0,1.4,0.1,2,0.4c0.6,0.3,1.1,0.7,1.6,1.3l-0.6,0.5
			c-0.3-0.4-0.8-0.7-1.3-1c-0.5-0.2-1-0.3-1.5-0.3c-0.9,0-1.7,0.3-2.3,1c-0.6,0.7-0.8,1.5-0.8,2.4c0,0.9,0.3,1.7,0.8,2.4
			c0.6,0.7,1.3,1,2.2,1c0.6,0,1.1-0.1,1.6-0.4S197.5,87.7,197.9,87.2z"/>
		<path class="st0" d="M216.5,89.4v-7.3h-2.8v-1h7.4l-0.2,1h-2.7v7.3H216.5z"/>
		<path class="st0" d="M235.8,85.2c0-1.2,0.5-2.3,1.4-3.1c0.9-0.8,2-1.3,3.3-1.3c1.3,0,2.4,0.4,3.3,1.3c0.9,0.8,1.4,1.9,1.4,3.1
			c0,1.2-0.5,2.3-1.4,3.1c-0.9,0.8-2,1.3-3.3,1.3c-1.3,0-2.4-0.4-3.3-1.3C236.3,87.5,235.8,86.5,235.8,85.2z M243.4,85.2
			c0-0.9-0.3-1.7-0.8-2.4c-0.5-0.7-1.2-1-2.1-1c-0.6,0-1.2,0.2-1.6,0.6c-0.4,0.4-0.8,0.8-1,1.4c-0.2,0.4-0.2,0.9-0.2,1.4
			c0,0.6,0.1,1.1,0.3,1.6c0.2,0.5,0.5,0.9,1,1.3c0.4,0.4,1,0.5,1.6,0.5c0.6,0,1.2-0.2,1.6-0.6c0.4-0.4,0.8-0.9,1-1.4
			C243.3,86.2,243.4,85.8,243.4,85.2z"/>
		<path class="st0" d="M264.8,86.4H263v3h-1.7v-8.3h3.2c0.7,0,1.2,0.1,1.8,0.2c0.5,0.2,1,0.4,1.4,0.9c0.4,0.4,0.6,0.9,0.6,1.6
			c0,0.5-0.2,1-0.5,1.3c-0.3,0.4-0.7,0.6-1.3,0.8v0.1l2.5,3.4H267L264.8,86.4z M263,85.4h1.4c0.5,0,1-0.2,1.3-0.5
			c0.4-0.3,0.5-0.7,0.5-1.2c0-0.5-0.2-0.9-0.5-1.2c-0.4-0.3-0.8-0.4-1.3-0.4H263V85.4z"/>
	</g>
	<g>
		<path class="st0" d="M8.3,72.7v-17H3.1v-2.4h13.5l-0.3,2.4h-4.8v17H8.3z"/>
		<path class="st0" d="M18.4,72.7V52.8h2.9v7.6h0.1c0.9-1.3,2-1.9,3.5-1.9c1.3,0,2.5,0.5,3.4,1.4c0.9,0.9,1.3,2.2,1.3,3.7v9.1h-2.9
			v-9.1c0-1-0.2-1.8-0.6-2.4c-0.4-0.6-1-0.9-1.8-0.9c-1.1,0-2.1,0.7-2.9,2.2v10.2H18.4z"/>
		<path class="st0" d="M44.8,66.8h-9c0.1,1.3,0.5,2.4,1.2,3.2c0.7,0.9,1.6,1.3,2.6,1.3c0.7,0,1.4-0.2,2-0.7c0.6-0.5,1.2-1.1,1.6-1.8
			l0.9,1c-0.6,1.1-1.3,1.9-2.1,2.4c-0.9,0.6-1.8,0.9-2.8,0.9c-1.8,0-3.3-0.7-4.5-2.1c-1.3-1.4-1.9-3.1-1.9-5.2
			c0-2.1,0.6-3.8,1.8-5.2c1.2-1.4,2.6-2.1,4.3-2.1c1.7,0,3.1,0.7,4.3,2c1.2,1.3,1.8,3,1.8,5c0,0.2,0,0.4,0,0.5c0,0.1,0,0.2,0,0.4
			C44.8,66.5,44.8,66.6,44.8,66.8z M35.8,64.7h6.1c0-0.9-0.2-1.7-0.5-2.5C41,61.5,40.6,61,40,60.6c-0.4-0.2-0.8-0.3-1.1-0.3
			c-0.9,0-1.6,0.5-2.2,1.4C36.1,62.5,35.8,63.6,35.8,64.7z"/>
		<path class="st0" d="M50.9,58.1c0-1.1,0.3-2.1,1-3c0.6-0.8,1.4-1.5,2.4-1.8c0.7-0.3,1.5-0.4,2.5-0.4c2.4,0,4.4,1.2,5.9,3.7l-1,1.1
			c-1.3-1.8-2.8-2.6-4.5-2.6c-0.8,0-1.5,0.3-2.1,0.8c-0.6,0.5-0.9,1.3-0.9,2.2c0,0.9,0.7,1.8,2.2,2.6c0.6,0.3,1.3,0.7,2.1,1
			c1.7,0.8,2.9,1.8,3.7,3c0.4,0.7,0.6,1.6,0.6,2.7c0,1.3-0.3,2.4-1,3.4c-0.7,1-1.6,1.6-2.6,2.1c-0.8,0.3-1.7,0.5-2.7,0.5
			c-1.3,0-2.6-0.4-3.8-1.1c-1.2-0.8-2.1-1.8-2.9-3.2l1-1.2c0.6,1,1.4,1.8,2.3,2.4s1.9,0.9,2.9,0.9s1.9-0.3,2.5-1
			c0.7-0.6,1-1.6,1-2.8c0-0.4-0.1-0.8-0.4-1.2c-0.3-0.4-0.6-0.6-0.8-0.8c-0.3-0.2-0.6-0.3-1-0.6c-0.6-0.3-1.3-0.6-2.1-1
			c-1.3-0.6-2.3-1.4-3.1-2.3C51.3,60.6,50.9,59.5,50.9,58.1z"/>
		<path class="st0" d="M74.3,64.9v-0.7c0-1.2-0.3-2.1-0.8-2.8s-1.2-1.1-2.2-1.1c-0.6,0-1.2,0.2-1.8,0.5c-0.6,0.3-1.1,0.8-1.5,1.4
			l-0.9-1c0.5-0.9,1.2-1.5,2-2c0.8-0.5,1.7-0.7,2.6-0.7c1.5,0,2.8,0.5,3.8,1.5c1,1,1.6,2.4,1.6,4.2v5c0,0.6,0,1.2,0.1,1.6
			c0,0.7,0.1,1.4,0.3,2h-2.9c-0.1-0.7-0.2-1.2-0.2-1.7h-0.1c-0.9,1.4-2.1,2.1-3.6,2.1c-1.2,0-2.3-0.4-3.2-1.2
			c-0.9-0.8-1.4-1.9-1.4-3.4c0-1.6,0.4-2.8,1.3-3.6c0.9-0.8,2-1.2,3.3-1.2C71.9,63.7,73.1,64.1,74.3,64.9z M71.4,71.4
			c0.6,0,1.1-0.2,1.6-0.6c0.5-0.4,0.9-0.9,1.3-1.6v-2.6c-0.7-0.6-1.7-1-2.9-1c-0.7,0-1.2,0.3-1.6,0.9c-0.4,0.6-0.6,1.3-0.6,2.2
			c0,0.7,0.2,1.4,0.7,1.9C70.2,71.1,70.8,71.4,71.4,71.4z"/>
		<path class="st0" d="M80.6,72.7V62.5c0-0.5,0-1,0-1.6l-0.1-1.1c-0.1-0.5-0.2-0.8-0.2-0.9h2.9c0.1,0.6,0.2,1.1,0.2,1.7h0.1
			c0.9-1.4,2.1-2.1,3.6-2.1c1.3,0,2.5,0.5,3.4,1.4c0.9,0.9,1.3,2.2,1.3,3.7v9.1h-2.9v-9.1c0-1-0.2-1.8-0.6-2.4
			c-0.4-0.6-1-0.9-1.8-0.9c-1.1,0-2.1,0.7-2.9,2.2v10.2H80.6z"/>
		<path class="st0" d="M95.5,67.8V61h-1.9v-2.1h2.1l1.5-4h1.2v4h3.4l-0.3,2.1h-3v6.8c0,1,0.2,1.8,0.5,2.5c0.3,0.7,0.8,1.1,1.5,1.1
			c0.8,0,1.5-0.5,2.1-1.4l0.8,1.1c-0.9,1.4-2.1,2.1-3.6,2.1c-1.3,0-2.3-0.5-3.1-1.5C95.9,70.6,95.5,69.3,95.5,67.8z"/>
		<path class="st0" d="M112.1,64.9v-0.7c0-1.2-0.3-2.1-0.8-2.8c-0.5-0.7-1.2-1.1-2.2-1.1c-0.6,0-1.2,0.2-1.8,0.5
			c-0.6,0.3-1.1,0.8-1.5,1.4l-0.9-1c0.5-0.9,1.2-1.5,2-2c0.8-0.5,1.7-0.7,2.6-0.7c1.5,0,2.8,0.5,3.8,1.5c1,1,1.6,2.4,1.6,4.2v5
			c0,0.6,0,1.2,0.1,1.6c0,0.7,0.1,1.4,0.3,2h-2.9c-0.1-0.7-0.2-1.2-0.2-1.7h-0.1c-0.9,1.4-2.1,2.1-3.6,2.1c-1.2,0-2.3-0.4-3.2-1.2
			c-0.9-0.8-1.4-1.9-1.4-3.4c0-1.6,0.4-2.8,1.3-3.6c0.9-0.8,2-1.2,3.3-1.2C109.7,63.7,110.9,64.1,112.1,64.9z M109.2,71.4
			c0.6,0,1.1-0.2,1.6-0.6c0.5-0.4,1-0.9,1.3-1.6v-2.6c-0.7-0.6-1.7-1-2.9-1c-0.7,0-1.2,0.3-1.6,0.9c-0.4,0.6-0.6,1.3-0.6,2.2
			c0,0.7,0.2,1.4,0.7,1.9C108.1,71.1,108.6,71.4,109.2,71.4z"/>
		<path class="st0" d="M133.9,67.8L135,69c-0.8,1.4-1.8,2.4-3,3.2c-1.2,0.7-2.5,1.1-3.9,1.1c-2.4,0-4.4-1-6-2.9
			c-1.7-2-2.5-4.4-2.5-7.3c0-2.9,0.8-5.3,2.5-7.3c1.7-2,3.7-2.9,6-2.9c1.3,0,2.5,0.3,3.7,1c1.1,0.7,2.1,1.7,2.9,3l-1,1.2
			c-0.6-0.9-1.4-1.7-2.3-2.2c-0.9-0.5-1.8-0.8-2.8-0.8c-1.7,0-3.1,0.8-4.1,2.4s-1.5,3.5-1.5,5.6c0,2.2,0.5,4,1.5,5.6
			c1,1.6,2.4,2.4,4.1,2.4c1,0,2-0.3,3-0.9C132.5,69.6,133.3,68.8,133.9,67.8z"/>
		<path class="st0" d="M137.4,52.8h2.9v19.9h-2.9V52.8z"/>
		<path class="st0" d="M151.5,64.9v-0.7c0-1.2-0.3-2.1-0.8-2.8c-0.5-0.7-1.2-1.1-2.2-1.1c-0.6,0-1.2,0.2-1.8,0.5
			c-0.6,0.3-1.1,0.8-1.5,1.4l-0.9-1c0.5-0.9,1.2-1.5,2-2c0.8-0.5,1.7-0.7,2.6-0.7c1.5,0,2.8,0.5,3.8,1.5c1,1,1.6,2.4,1.6,4.2v5
			c0,0.6,0,1.2,0.1,1.6c0,0.7,0.1,1.4,0.3,2h-2.9c-0.1-0.7-0.2-1.2-0.2-1.7h-0.1c-0.9,1.4-2.1,2.1-3.6,2.1c-1.2,0-2.3-0.4-3.2-1.2
			c-0.9-0.8-1.4-1.9-1.4-3.4c0-1.6,0.4-2.8,1.3-3.6c0.9-0.8,2-1.2,3.3-1.2C149.1,63.7,150.3,64.1,151.5,64.9z M148.6,71.4
			c0.6,0,1.1-0.2,1.6-0.6c0.5-0.4,1-0.9,1.3-1.6v-2.6c-0.7-0.6-1.7-1-2.9-1c-0.7,0-1.2,0.3-1.6,0.9c-0.4,0.6-0.6,1.3-0.6,2.2
			c0,0.7,0.2,1.4,0.7,1.9C147.5,71.1,148,71.4,148.6,71.4z"/>
		<path class="st0" d="M165.8,58.9l-0.6,2.2c-0.4-0.2-1-0.3-1.6-0.3c-1,0-1.9,0.6-2.9,1.7v10.2h-2.9V62.5c0-0.5,0-1,0-1.6l-0.1-1.1
			c-0.1-0.5-0.2-0.8-0.2-0.9h2.9c0.1,0.6,0.2,1.1,0.2,1.7h0.1c0.9-1.4,2.1-2.1,3.6-2.1c0.2,0,0.4,0,0.6,0.1c0.3,0.1,0.4,0.1,0.5,0.1
			c0,0,0.1,0.1,0.2,0.1C165.7,58.8,165.7,58.9,165.8,58.9z"/>
		<path class="st0" d="M170.5,54.6c0,0.6-0.2,1-0.5,1.5c-0.3,0.4-0.7,0.6-1.2,0.6c-0.4,0-0.8-0.2-1.2-0.6c-0.3-0.4-0.5-0.9-0.5-1.4
			c0-0.6,0.2-1,0.5-1.5c0.3-0.4,0.7-0.6,1.2-0.6c0.5,0,0.9,0.2,1.2,0.6C170.3,53.6,170.5,54,170.5,54.6z M170.3,58.9v13.8h-2.9V58.9
			H170.3z"/>
		<path class="st0" d="M174.1,67.8V61h-1.9v-2.1h2.1l1.5-4h1.2v4h3.4L180,61h-3v6.8c0,1,0.2,1.8,0.5,2.5c0.3,0.7,0.8,1.1,1.5,1.1
			c0.8,0,1.5-0.5,2.1-1.4l0.8,1.1c-0.9,1.4-2.1,2.1-3.6,2.1c-1.3,0-2.3-0.5-3.1-1.5S174.1,69.3,174.1,67.8z"/>
		<path class="st0" d="M190.7,64.9v-0.7c0-1.2-0.3-2.1-0.8-2.8c-0.5-0.7-1.2-1.1-2.2-1.1c-0.6,0-1.2,0.2-1.8,0.5
			c-0.6,0.3-1.1,0.8-1.5,1.4l-0.9-1c0.5-0.9,1.2-1.5,2-2c0.8-0.5,1.7-0.7,2.6-0.7c1.5,0,2.8,0.5,3.8,1.5c1,1,1.6,2.4,1.6,4.2v5
			c0,0.6,0,1.2,0.1,1.6c0,0.7,0.1,1.4,0.3,2H191c-0.1-0.7-0.2-1.2-0.2-1.7h-0.1c-0.9,1.4-2.1,2.1-3.6,2.1c-1.2,0-2.3-0.4-3.2-1.2
			c-0.9-0.8-1.4-1.9-1.4-3.4c0-1.6,0.4-2.8,1.3-3.6c0.9-0.8,2-1.2,3.3-1.2C188.3,63.7,189.5,64.1,190.7,64.9z M187.8,71.4
			c0.6,0,1.1-0.2,1.6-0.6c0.5-0.4,1-0.9,1.3-1.6v-2.6c-0.7-0.6-1.7-1-2.9-1c-0.7,0-1.2,0.3-1.6,0.9c-0.4,0.6-0.6,1.3-0.6,2.2
			c0,0.7,0.2,1.4,0.7,1.9C186.6,71.1,187.2,71.4,187.8,71.4z"/>
	</g>
	<path class="st1" d="M255.1,48.4C255.1,48.4,255.1,48.4,255.1,48.4C255.1,48.5,255.1,48.4,255.1,48.4
		C255.1,48.4,255.1,48.4,255.1,48.4z"/>
	<path class="st2" d="M276.8,68.4c-0.6-2.1-4.6-1.8-8.5-7.7c-2.4-3.6-8.6-4.5-12-8.7c-2.4-4.1-4.5-5.2-9.4-11
		c-5.6-6.7-11.4-20.3-18.3-18.8c-4.9,2.2-13.4,6.5-12.8,11c2.7,3.3,1.5,4.5,4.3,2c1.1-0.3,3.9-2.9,5.1-3.8c1.4-1.1,2.8-3.4,5.4-2.7
		c4.2,6.1,8.5,12,13.8,16.4c6.9,4.2,11.3,13.1,19.4,14.9C268.2,59.9,277.4,72.8,276.8,68.4z"/>
	<path class="st3" d="M273,67.3c1-4.1-15.6-4.4-28.2-12.3c-1.4-0.9-17-13.5-21.9-16.9c-4.9-4.6-8.9-11.2-13.3-16.4
		c-4.2-4.9-1.8-10.7-4.6-11.3c-2.5-0.5-7.4,5.4-11.8,10.3c-2.2,2.5-12.2,8.5-16.1,9.7c1.2,5.5,5,1.4,8,0.1c5-2.3,10.9-6.5,14.2-10.2
		c3.3-3.7,4.9,5,6.2,7.2c1.3,2.2,6.1,9.5,8.2,11.4c2.1,1.9,19.2,18.6,29.7,23.2C249.5,64.4,270.4,74.4,273,67.3z"/>
	<path class="st4" d="M179.1,31.6c1.8,3,14.4,12.9,14.4,12.9c2.3,1.3,20.8,13.1,31.6,15.8c10.7,2.7,23.4,3.8,22.6,6.7
		c-1.2,4.2-9.7,2.6-13,1.9c-1.7-0.4-5-2-11.8-2.6c-9.3-0.9-12.7-5.4-21.1-10c0,0,0,0,0,0c-8.1-4.8-14.3-7.6-20.3-13.5
		c-4.3-4.2-6.3-7.7-7.2-10c-1.4-3.2-1.6-3.8-11.8,1.5c-2.9,1.5-8.1,3.1-11.3,4.5s-10.2,4.1-12.4,5.2c-2.2,1.2-1,1.9-2.5,2.6
		c-3.1,1.4-11.7,6-12.6,4.5c-0.9-1.5,9.6-3.6,9.9-5.4c0.5-3.3,23.5-12.3,26.1-13.7c9.6-5.1,17.4-12,17.4-8.7
		C177,28,180,33.1,179.1,31.6z"/>
</g>
</svg>
